<svg xmlns="http://www.w3.org/2000/svg" xmlns:xlink="http://www.w3.org/1999/xlink" width="173" height="78" viewBox="0 0 173 78">
  <defs>
    <linearGradient id="zed-hero-2-a" x1="0%" x2="100%" y1="0%" y2="0%">
      <stop offset="0%" stop-color="#DD4E0F"/>
      <stop offset="14.286%" stop-color="#E26308"/>
      <stop offset="28.571%" stop-color="#E77603"/>
      <stop offset="42.857%" stop-color="#EA8804"/>
      <stop offset="57.143%" stop-color="#ED9A0D"/>
      <stop offset="71.429%" stop-color="#EFAC1A"/>
      <stop offset="85.714%" stop-color="#F0BD28"/>
      <stop offset="100%" stop-color="#F0CE38"/>
    </linearGradient>
    <path id="zed-hero-2-b" d="M48.5171875,76 L4.2859375,76 C2.6296875,76 1.46796875,75.4020833 0.80078125,74.20625 C0.13359375,73.0104167 -0.0989583333,71.36875 0.103125,69.28125 L0.38125,65.4515625 C4.13645833,62.2203125 7.7265625,58.9575521 11.1515625,55.6632813 C14.5765625,52.3690104 17.8723958,48.9721354 21.0390625,45.4726562 C24.2057292,41.9731771 27.2515625,38.3380208 30.1765625,34.5671875 C31.3640625,33.0411458 32.4723958,31.5638021 33.5015625,30.1351562 C34.5307292,28.7065104 35.5078125,27.3065104 36.4328125,25.9351563 C37.3578125,24.5638021 38.2385417,23.2018229 39.075,21.8492188 C39.9114583,20.4966146 40.7395833,19.1216146 41.559375,17.7242188 C42.3791667,16.3268229 43.2140625,14.8833333 44.0640625,13.39375 L42.93125,18.4578125 L41.54375,12.9859375 L44.7359375,14.8078125 C42.3942708,15.0661458 40.284375,15.2742187 38.40625,15.4320312 C36.528125,15.5898437 34.7304688,15.6994792 33.0132813,15.7609375 C31.2960938,15.8223958 29.4817708,15.853125 27.5703125,15.853125 L14.06875,15.853125 C12.909375,15.853125 11.9453125,15.5520833 11.1765625,14.95 C10.4078125,14.3479167 9.828125,13.5533854 9.4375,12.5664062 C9.046875,11.5794271 8.82838542,10.5127604 8.78203125,9.36640625 C8.73567708,8.22005208 8.84114583,7.09791667 9.0984375,6 L48.4359375,6 C49.7390625,6 50.7445313,6.3109375 51.4523438,6.9328125 C52.1601563,7.5546875 52.6515625,8.43567708 52.9265625,9.57578125 C53.2015625,10.7158854 53.2932292,12.0916667 53.2015625,13.703125 L52.9359375,17.1359375 C52.3098958,19.0140625 51.0369792,21.5044271 49.1171875,24.6070313 C47.1973958,27.7096354 44.8002604,31.1505208 41.9257813,34.9296875 C39.0513021,38.7088542 35.8229167,42.5911458 32.240625,46.5765625 C30.7635417,48.3505208 29.3263021,50.0026042 27.9289063,51.5328125 C26.5315104,53.0630208 25.1390625,54.5080729 23.7515625,55.8679687 C22.3640625,57.2278646 20.9536458,58.5359375 19.5203125,59.7921875 C18.0869792,61.0484375 16.5953125,62.2958333 15.0453125,63.534375 C13.4953125,64.7729167 11.8567708,66.0390625 10.1296875,67.3328125 L12.1359375,63.2578125 L12.70625,68.6953125 L10.1296875,66.7890625 C13.1671875,66.5463542 15.8877604,66.3609375 18.2914063,66.2328125 C20.6950521,66.1046875 22.8963542,66.0177083 24.8953125,65.971875 C26.8942708,65.9260417 28.8052083,65.903125 30.628125,65.903125 L44.7546875,65.903125 C46.5380208,65.903125 47.7226563,66.4622396 48.3085938,67.5804687 C48.8945313,68.6986979 49.1244792,70.1109375 48.9984375,71.8171875 C48.9453125,72.5661458 48.8830729,73.2851563 48.8117188,73.9742188 C48.7403646,74.6632812 48.6421875,75.3385417 48.5171875,76 Z M90.3625,21.44375 C93.5885417,21.44375 96.4460938,21.9268229 98.9351563,22.8929687 C101.424219,23.8591146 103.507292,25.1789062 105.184375,26.8523437 C106.861458,28.5257812 108.092188,30.4432292 108.876563,32.6046875 C109.660938,34.7661458 109.969271,37.0322917 109.801563,39.403125 L109.725,40.075 C109.491667,42.9916667 108.616927,45.4846354 107.100781,47.5539063 C105.584635,49.6231771 103.341146,51.2041667 100.370313,52.296875 C97.3994792,53.3895833 93.5625,53.9359375 88.859375,53.9359375 C86.728125,53.9359375 84.6864583,53.8544271 82.734375,53.6914062 C80.7822917,53.5283854 78.9645833,53.3065104 77.28125,53.0257812 C75.5979167,52.7450521 74.0760417,52.4333333 72.715625,52.090625 L69.5921875,53.0125 L70.0859375,45.64375 C71.6828125,45.9458333 73.2815104,46.2080729 74.8820313,46.4304687 C76.4825521,46.6528646 78.2304688,46.8242188 80.1257813,46.9445313 C82.0210938,47.0648437 84.1786458,47.125 86.5984375,47.125 C90.9744792,47.125 94.1861979,46.459375 96.2335938,45.128125 C98.2809896,43.796875 99.4057292,41.9427083 99.6078125,39.565625 C99.7453125,37.8802083 99.6486979,36.4330729 99.3179688,35.2242188 C98.9872396,34.0153646 98.440625,32.9786458 97.678125,32.1140625 C96.73125,31.6526042 95.6765625,31.3 94.5140625,31.05625 C93.3515625,30.8125 91.9854167,30.690625 90.415625,30.690625 C87.246875,30.690625 84.4239583,31.3877604 81.946875,32.7820312 C79.4697917,34.1763021 77.4731771,36.2979167 75.9570313,39.146875 C74.4408854,41.9958333 73.5239583,45.6119792 73.20625,49.9953125 L72.9015625,53.9078125 C72.7151042,56.1046875 72.8075521,58.1166667 73.1789063,59.94375 C73.5502604,61.7708333 74.1984375,63.390625 75.1234375,64.803125 C76.7828125,65.83125 78.6348958,66.5815104 80.6796875,67.0539063 C82.7244792,67.5263021 85.1859375,67.7625 88.0640625,67.7625 C90.6244792,67.7625 92.9385417,67.5575521 95.00625,67.1476563 C97.0739583,66.7377604 99.0296875,66.1247396 100.873438,65.3085938 C102.717188,64.4924479 104.546875,63.4692708 106.3625,62.2390625 L107.259375,62.2390625 C107.283333,62.9973958 107.284635,63.7651042 107.263281,64.5421875 C107.241927,65.3192708 107.199479,66.1041667 107.135938,66.896875 C107.036979,68.228125 106.807292,69.375 106.446875,70.3375 C106.086458,71.3 105.580729,72.0916667 104.929688,72.7125 C104.027604,73.5854167 102.745833,74.3622396 101.084375,75.0429688 C99.4229167,75.7236979 97.4640625,76.2554687 95.2078125,76.6382812 C92.9515625,77.0210937 90.4567708,77.2125 87.7234375,77.2125 C83.7484375,77.2125 80.1625,76.6333333 76.965625,75.475 C73.76875,74.3166667 71.0604167,72.6463542 68.840625,70.4640625 C66.6208333,68.2817708 64.9898438,65.6380208 63.9476563,62.5328125 C62.9054688,59.4276042 62.5338542,55.9302083 62.8328125,52.040625 L63.134375,48.171875 C63.44375,43.7083333 64.3549479,39.8104167 65.8679688,36.478125 C67.3809896,33.1458333 69.3622396,30.3635417 71.8117188,28.13125 C74.2611979,25.8989583 77.0664063,24.2263021 80.2273438,23.1132812 C83.3882813,22.0002604 86.7666667,21.44375 90.3625,21.44375 Z M143.482813,21.55 C145.574479,21.55 147.470573,21.9005208 149.171094,22.6015625 C150.871615,23.3026042 152.388542,24.2494792 153.721875,25.4421875 C155.055208,26.6348958 156.166146,27.9838542 157.054688,29.4890625 L159.792188,29.4890625 L158.689063,38.5078125 C156.875521,36.0348958 154.990625,34.2377604 153.034375,33.1164063 C151.078125,31.9950521 148.750521,31.434375 146.051563,31.434375 C143.334896,31.434375 141.026563,32.1213542 139.126563,33.4953125 C137.226563,34.8692708 135.727604,36.9244792 134.629688,39.6609375 C133.531771,42.3973958 132.820313,45.8052083 132.495313,49.884375 L132.115625,54.4171875 C131.961458,56.3151042 131.942188,58.0484375 132.057813,59.6171875 C132.173438,61.1859375 132.458854,62.6229167 132.914063,63.928125 C133.625521,64.7927083 134.454688,65.4473958 135.401563,65.8921875 C136.348438,66.3369792 137.411458,66.559375 138.590625,66.559375 C140.938542,66.559375 143.172396,65.971875 145.292188,64.796875 C147.411979,63.621875 149.486719,61.7213542 151.516406,59.0953125 C153.546094,56.4692708 155.570313,52.9921875 157.589063,48.6640625 L156.821875,62.8875 L154.407813,62.8875 C153.092188,65.625 151.502865,68.0661458 149.639844,70.2109375 C147.776823,72.3557292 145.734115,74.0359375 143.511719,75.2515625 C141.289323,76.4671875 138.952083,77.075 136.5,77.075 C134.120833,77.075 131.958854,76.5515625 130.014063,75.5046875 C128.069271,74.4578125 126.424479,72.9815104 125.079688,71.0757813 C123.734896,69.1700521 122.748438,66.9382813 122.120313,64.3804688 C121.492188,61.8226562 121.291667,59.0234375 121.51875,55.9828125 L121.929688,50.096875 C122.297396,45.0770833 123.096354,40.7630208 124.326563,37.1546875 C125.556771,33.5463542 127.136979,30.5924479 129.067188,28.2929688 C130.997396,25.9934896 133.18724,24.2947917 135.636719,23.196875 C138.086198,22.0989583 140.701563,21.55 143.482813,21.55 Z M158.9125,0.8859375 C159.785417,0.755729167 160.651042,0.66015625 161.509375,0.59921875 C162.367708,0.53828125 163.2375,0.5078125 164.11875,0.5078125 C165.311458,0.5078125 166.373438,0.800260417 167.304688,1.38515625 C168.235938,1.97005208 168.951823,2.95078125 169.452344,4.32734375 C169.952865,5.70390625 170.121354,7.603125 169.957813,10.025 C169.668229,14.4770833 169.334115,18.9119792 168.955469,23.3296875 C168.576823,27.7473958 168.186979,32.1414063 167.785938,36.5117188 C167.384896,40.8820312 167.006771,45.2304687 166.651563,49.5570312 C166.296354,53.8835937 165.995833,58.225 165.75,62.58125 C165.695833,63.3333333 165.678385,64.0002604 165.697656,64.5820312 C165.716927,65.1638021 165.786458,65.70625 165.90625,66.209375 C166.170833,66.43125 166.463021,66.5914063 166.782813,66.6898437 C167.102604,66.7882812 167.432813,66.8375 167.773438,66.8375 C168.236979,66.8375 168.696354,66.7622396 169.151563,66.6117187 C169.606771,66.4611979 170.059115,66.2390625 170.508594,65.9453125 C170.958073,65.6515625 171.347396,65.3244792 171.676563,64.9640625 L172.564063,64.9640625 C172.568229,65.7130208 172.553646,66.4846354 172.520313,67.2789063 C172.486979,68.0731771 172.424479,68.8994792 172.332813,69.7578125 C172.242188,70.8932292 171.996615,71.9148438 171.596094,72.8226562 C171.195573,73.7304687 170.689063,74.4546875 170.076563,74.9953125 C169.383854,75.5723958 168.629948,75.9994792 167.814844,76.2765625 C166.99974,76.5536458 166.119271,76.6921875 165.173438,76.6921875 C163.592188,76.6921875 162.164583,76.3846354 160.890625,75.7695312 C159.616667,75.1544271 158.545573,74.2789063 157.677344,73.1429687 C156.809115,72.0070312 156.172135,70.6401042 155.766406,69.0421875 C155.360677,67.4442708 155.218229,65.6760417 155.339063,63.7375 C155.625521,59.2145833 155.948698,54.7625 156.308594,50.38125 C156.66849,46 157.042188,41.6372396 157.429688,37.2929688 C157.817188,32.9486979 158.192188,28.5901042 158.554688,24.2171875 C158.917188,19.8442708 159.24375,15.4244792 159.534375,10.9578125 C159.639583,8.99114583 159.65599,7.19348958 159.583594,5.56484375 C159.511198,3.93619792 159.2875,2.3765625 158.9125,0.8859375 Z"/>
    <filter id="zed-hero-2-c" width="101.7%" height="103.9%" x="-.9%" y="-2%" filterUnits="objectBoundingBox">
      <feGaussianBlur in="SourceAlpha" result="shadowBlurInner1" stdDeviation="1"/>
      <feOffset dy="1" in="shadowBlurInner1" result="shadowOffsetInner1"/>
      <feComposite in="shadowOffsetInner1" in2="SourceAlpha" k2="-1" k3="1" operator="arithmetic" result="shadowInnerInner1"/>
      <feColorMatrix in="shadowInnerInner1" values="0 0 0 0 0   0 0 0 0 0   0 0 0 0 0  0 0 0 0.5 0"/>
    </filter>
  </defs>
  <g fill="none">
    <use fill="url(#zed-hero-2-a)" xlink:href="#zed-hero-2-b"/>
    <use fill="#000" filter="url(#zed-hero-2-c)" xlink:href="#zed-hero-2-b"/>
  </g>
</svg>
