<svg xmlns="http://www.w3.org/2000/svg" width="16" height="17" viewBox="0 0 16 17">
  <path fill="#DD4E0F" d="M2.01087408,0 L14.4116707,0 C14.7807856,0 15.0877851,0.137182493 15.3326693,0.411547479 C15.5775534,0.685912466 15.7580457,1.01890387 15.8741462,1.41052169 C15.9902466,1.80213951 16.0260199,2.18130129 15.9814659,2.54800703 L15.9565872,2.72587925 C15.9289443,2.93314771 15.7517854,3.28150156 15.4251106,3.7709408 C15.0984358,4.26038003 14.6507011,4.84041618 14.0819064,5.51104924 C13.5131118,6.1816823 12.8509001,6.9047968 12.0952716,7.68039273 C11.339643,8.45598867 10.5124679,9.23565358 9.61374635,10.0193875 C8.71502478,10.8031213 7.77866,11.551397 6.804652,12.2642145 C6.40756894,12.5495408 5.98292422,12.8316286 5.53071783,13.1104777 C5.07851145,13.3893269 4.66915166,13.641188 4.30263847,13.866061 L4.34166383,14.041442 C5.00476978,13.9667057 5.64519223,13.9147225 6.26293119,13.8854924 C6.88067015,13.8562622 7.50710852,13.8416471 8.14224629,13.8416471 L12.7648004,13.8416471 C13.4483947,13.8416471 13.9079183,14.010468 14.1433714,14.3481096 C14.3788244,14.6857513 14.4521595,15.1880617 14.3633768,15.855041 C14.3357339,16.0400547 14.2960581,16.2374414 14.2443495,16.4472011 C14.1926409,16.6569607 14.1342654,16.841227 14.0692232,17 L1.21914704,17 C0.881902869,17 0.616611709,16.8805881 0.423273561,16.6417644 C0.229935412,16.4029406 0.103916014,16.084066 0.0452153647,15.6851407 C-0.0134852842,15.2862153 -0.0150300381,14.8618796 0.040581103,14.4121336 L0.0825333673,14.113687 C1.33589792,13.2726553 2.57470926,12.3640289 3.79896739,11.3878077 C5.02322552,10.4115866 6.19341727,9.39293181 7.30954262,8.33184349 C8.42566798,7.27075518 9.43967698,6.20626221 10.3515696,5.1383646 C10.6471867,4.80720008 10.9354053,4.47454084 11.2162253,4.14038687 C11.4970453,3.8062329 11.7579461,3.46294451 11.9989277,3.11052169 L11.9359993,2.91919695 C11.2842758,3.00954474 10.6215763,3.07199101 9.94790102,3.10653576 C9.2742257,3.1410805 8.55884203,3.15835287 7.80175,3.15835287 L3.154805,3.15835287 C2.79642209,3.15835287 2.50560184,3.06758988 2.28234425,2.88606389 C2.05908666,2.70453791 1.9113594,2.43581966 1.83916248,2.07990914 C1.76696556,1.72399863 1.76143697,1.29924775 1.8225767,0.805656506 C1.84501629,0.668474013 1.86989495,0.528800313 1.89721271,0.386635404 C1.92453046,0.244470496 1.96241758,0.115592028 2.01087408,0 Z"/>
</svg>
